<?xml version="1.0" encoding="UTF-8"?>
<svg xmlns="http://www.w3.org/2000/svg" width="170.44" height="35.18" viewBox="0 0 170.44 35.18">
  <defs>
    <style>
      .d {
        fill: #2584ff;
        stroke: #2584ff;
      }

      .d, .e {
        fill-rule: evenodd;
        stroke-linecap: round;
        stroke-linejoin: round;
        stroke-width: 10px;
      }

      .f, .e {
        isolation: isolate;
      }

      .g {
        fill: #fff;
      }

      .e {
        fill: #ff3400;
        mix-blend-mode: lighten;
        stroke: #ff3400;
      }
    </style>
  </defs>
  <g class="f">
    <g id="a" data-name="Layer_1">
      <path id="b" data-name="Polygon_1_copy_2" class="d" d="M24.61,20.68L5,30.18,12.79,5l11.81,15.68Z"/>
      <path id="c" data-name="Polygon_1_copy_2-2" class="e" d="M17.79,20.68l19.61,9.5-7.79-25.18-11.81,15.68Z"/>
      <g class="f">
        <path class="g" d="M54.12,4.6h5.69l6.01,14.66h.26l6.01-14.66h5.69v21.82h-4.47v-14.2h-.18l-5.65,14.09h-3.05l-5.65-14.15h-.18v14.25h-4.47V4.6Z"/>
        <path class="g" d="M88.86,26.74c-1.65,0-3.08-.35-4.29-1.06-1.2-.71-2.13-1.69-2.79-2.96s-.98-2.74-.98-4.42.33-3.17.98-4.44,1.58-2.25,2.79-2.96c1.2-.71,2.63-1.06,4.29-1.06s3.08.35,4.29,1.06c1.2.71,2.13,1.69,2.79,2.96s.98,2.75.98,4.44-.33,3.15-.98,4.42-1.58,2.25-2.79,2.96c-1.2.71-2.63,1.06-4.29,1.06ZM88.88,23.22c.75,0,1.38-.21,1.89-.64s.89-1.02,1.15-1.76c.26-.75.39-1.59.39-2.55s-.13-1.8-.39-2.55c-.26-.75-.64-1.33-1.15-1.77-.5-.43-1.13-.65-1.89-.65s-1.4.22-1.91.65c-.51.43-.9,1.02-1.16,1.77-.26.75-.39,1.59-.39,2.55s.13,1.8.39,2.55c.26.75.65,1.33,1.16,1.76.52.43,1.15.64,1.91.64Z"/>
        <path class="g" d="M113.49,14.72l-4.15.26c-.07-.35-.22-.68-.46-.96s-.54-.52-.92-.69c-.38-.17-.83-.26-1.36-.26-.7,0-1.3.15-1.78.44-.48.29-.72.69-.72,1.18,0,.39.16.72.47.99s.85.49,1.61.65l2.96.6c1.59.33,2.78.85,3.56,1.58.78.72,1.17,1.68,1.17,2.85,0,1.07-.31,2.01-.94,2.82s-1.49,1.44-2.58,1.89c-1.09.45-2.35.68-3.77.68-2.17,0-3.89-.45-5.17-1.36s-2.03-2.14-2.25-3.7l4.46-.23c.13.66.46,1.16.98,1.51s1.18.52,1.99.52,1.44-.15,1.92-.46c.49-.31.73-.71.74-1.2,0-.41-.18-.75-.52-1.02s-.87-.47-1.58-.61l-2.83-.56c-1.6-.32-2.79-.87-3.56-1.66-.78-.79-1.17-1.79-1.17-3.01,0-1.05.29-1.96.86-2.72.57-.76,1.38-1.35,2.42-1.76,1.04-.41,2.26-.62,3.66-.62,2.07,0,3.69.44,4.88,1.31s1.88,2.06,2.08,3.57Z"/>
        <path class="g" d="M121.27,16.96v9.46h-4.54V4.6h4.41v8.34h.19c.37-.97.97-1.72,1.79-2.27.82-.55,1.86-.83,3.1-.83,1.14,0,2.13.25,2.98.74.85.49,1.51,1.2,1.98,2.12.47.92.71,2.02.7,3.3v10.42h-4.54v-9.61c0-1.01-.25-1.79-.76-2.35-.51-.56-1.23-.84-2.16-.84-.62,0-1.16.13-1.64.39s-.84.64-1.11,1.15c-.27.5-.4,1.1-.41,1.81Z"/>
        <path class="g" d="M137.74,7.95c-.67,0-1.25-.23-1.74-.68-.48-.45-.72-.99-.72-1.62s.24-1.16.72-1.61c.48-.45,1.06-.68,1.73-.68s1.26.23,1.74.68c.48.45.72.99.72,1.61s-.24,1.17-.72,1.62c-.48.45-1.06.68-1.73.68ZM135.46,26.42V10.06h4.54v16.36h-4.54Z"/>
        <path class="g" d="M152.41,10.06v3.41h-10.1v-3.41h10.1ZM144.63,26.42V8.87c0-1.19.23-2.17.7-2.95.46-.78,1.1-1.37,1.91-1.76.81-.39,1.73-.59,2.76-.59.7,0,1.33.05,1.91.16.58.11,1.01.2,1.29.29l-.81,3.41c-.18-.06-.4-.11-.65-.16-.26-.05-.52-.07-.79-.07-.67,0-1.13.15-1.39.46-.26.31-.39.74-.39,1.29v17.46h-4.53Z"/>
        <path class="g" d="M157.98,32.52c-.57,0-1.11-.04-1.61-.13s-.91-.2-1.24-.33l1.02-3.4c.8.25,1.48.31,2.03.2s.99-.55,1.3-1.28l.27-.69-5.87-16.83h4.77l3.39,12.02h.17l3.42-12.02,4.8.02-6.36,18.11c-.31.87-.72,1.63-1.24,2.29-.52.65-1.18,1.15-1.98,1.51-.8.36-1.75.54-2.88.54Z"/>
      </g>
    </g>
  </g>
</svg>